# xmcd
# 
# Track frame offsets:
#     150
#     10562
#     23185
#     36532
#     46477
#     58205
#     67435
#     80337
#     90002
#     108240
#     119977
#     134652
# 
# Disc length: 1963
# 
# Revision: 1
# Processed by: cddbd v1.5.2PL0 Copyright (c) Steve Scherf et al.
# Submitted via: BonkEnc v1.0.5
# 
DISCID=aa07a90c
DTITLE=Marty Robbins - Robbins, Marty - A Christmas Remembered
DYEAR=1990
DGENRE=Christimas
TTITLE0=Christmas Time’s A Comin’
TTITLE1=Merry Little Christmas Bells
TTITLE2=Don’t Hang The Mistletoe
TTITLE3=Rudolph, The Red-Nosed Reindeer
TTITLE4=If We Make It Through December
TTITLE5=Jingle Bell Rock
TTITLE6=Pretty Paper
TTITLE7=Santa Claus Is Coming To Town
TTITLE8=Nester, The Long-Eared Christmas Donkey
TTITLE9=I’ll Be Home For Christmas
TTITLE10=O Little Town Of Bethleham
TTITLE11=Christmas Is For Kids
EXTD=
EXTT0=
EXTT1=
EXTT2=
EXTT3=
EXTT4=
EXTT5=
EXTT6=
EXTT7=
EXTT8=
EXTT9=
EXTT10=
EXTT11=
PLAYORDER=
